<svg width="875" height="327" viewBox="0 0 875 327" fill="none" xmlns="http://www.w3.org/2000/svg">
<path d="M71.8037 95.4352L4.8189 6.40487C2.83549 3.76869 4.71626 0 8.01524 0H75C77.2091 0 79 1.79086 79 4V93.0304C79 96.8713 74.1129 98.5045 71.8037 95.4352Z" fill="#21B2E9"/>
<path d="M133 178.654V6C133 3.79086 134.791 2 137 2H294.981C296.251 2 297.445 2.60273 298.199 3.62413L371.293 102.624C373.242 105.265 371.357 109 368.075 109H244C241.791 109 240 110.791 240 113V309.112C240 312.945 235.13 314.583 232.814 311.53L133.814 181.072C133.286 180.377 133 179.527 133 178.654Z" fill="#21ADE9" stroke="#34B0E4"/>
<path d="M357.352 175.32V190.296H339.304V243H320.488V190.296H302.632V175.32H357.352ZM398.586 243L385.146 218.04H383.13V243H364.314V175.32H393.978C399.418 175.32 404.026 176.28 407.802 178.2C411.578 180.056 414.426 182.648 416.346 185.976C418.266 189.24 419.226 192.92 419.226 197.016C419.226 201.624 417.946 205.688 415.385 209.208C412.89 212.664 409.21 215.128 404.346 216.6L419.61 243H398.586ZM383.13 205.176H392.442C395.002 205.176 396.922 204.568 398.202 203.352C399.482 202.136 400.122 200.376 400.122 198.072C400.122 195.896 399.45 194.2 398.106 192.984C396.826 191.704 394.938 191.064 392.442 191.064H383.13V205.176ZM446.214 175.32V214.584C446.214 218.232 447.046 221.048 448.71 223.032C450.438 225.016 453.03 226.008 456.486 226.008C459.942 226.008 462.534 225.016 464.262 223.032C466.054 220.984 466.95 218.168 466.95 214.584V175.32H485.766V214.584C485.766 220.792 484.454 226.104 481.83 230.52C479.206 234.872 475.622 238.168 471.078 240.408C466.598 242.584 461.606 243.672 456.102 243.672C450.598 243.672 445.67 242.584 441.318 240.408C437.03 238.168 433.638 234.872 431.142 230.52C428.71 226.168 427.494 220.856 427.494 214.584V175.32H446.214ZM521.662 243.672C513.79 243.672 507.326 241.816 502.27 238.104C497.214 234.328 494.494 228.952 494.11 221.976H514.174C514.366 224.344 515.07 226.072 516.286 227.16C517.502 228.248 519.07 228.792 520.99 228.792C522.718 228.792 524.126 228.376 525.214 227.544C526.366 226.648 526.942 225.432 526.942 223.896C526.942 221.912 526.014 220.376 524.158 219.288C522.302 218.2 519.294 216.984 515.134 215.64C510.718 214.168 507.134 212.76 504.382 211.416C501.694 210.008 499.326 207.992 497.278 205.368C495.294 202.68 494.302 199.192 494.302 194.904C494.302 190.552 495.39 186.84 497.566 183.768C499.742 180.632 502.75 178.264 506.59 176.664C510.43 175.064 514.782 174.264 519.646 174.264C527.518 174.264 533.79 176.12 538.462 179.832C543.198 183.48 545.726 188.632 546.046 195.288H525.598C525.534 193.24 524.894 191.704 523.678 190.68C522.526 189.656 521.022 189.144 519.166 189.144C517.758 189.144 516.606 189.56 515.71 190.392C514.814 191.224 514.366 192.408 514.366 193.944C514.366 195.224 514.846 196.344 515.806 197.304C516.83 198.2 518.078 199 519.55 199.704C521.022 200.344 523.198 201.176 526.078 202.2C530.366 203.672 533.886 205.144 536.638 206.616C539.454 208.024 541.854 210.04 543.838 212.664C545.886 215.224 546.91 218.488 546.91 222.456C546.91 226.488 545.886 230.104 543.838 233.304C541.854 236.504 538.942 239.032 535.102 240.888C531.326 242.744 526.846 243.672 521.662 243.672ZM606.633 175.32V190.296H588.585V243H569.769V190.296H551.913V175.32H606.633ZM708.923 175.32L692.315 243H669.179L659.867 201.528L650.363 243H627.227L610.811 175.32H631.163L639.035 221.592L649.691 175.32H670.331L680.699 221.208L688.571 175.32H708.923ZM735.723 175.32V243H716.907V175.32H735.723ZM771.975 243.672C764.103 243.672 757.639 241.816 752.583 238.104C747.527 234.328 744.807 228.952 744.423 221.976H764.487C764.679 224.344 765.383 226.072 766.599 227.16C767.815 228.248 769.383 228.792 771.303 228.792C773.031 228.792 774.439 228.376 775.527 227.544C776.679 226.648 777.255 225.432 777.255 223.896C777.255 221.912 776.327 220.376 774.471 219.288C772.615 218.2 769.607 216.984 765.447 215.64C761.031 214.168 757.447 212.76 754.695 211.416C752.007 210.008 749.639 207.992 747.591 205.368C745.607 202.68 744.615 199.192 744.615 194.904C744.615 190.552 745.703 186.84 747.879 183.768C750.055 180.632 753.063 178.264 756.903 176.664C760.743 175.064 765.095 174.264 769.959 174.264C777.831 174.264 784.103 176.12 788.775 179.832C793.511 183.48 796.039 188.632 796.359 195.288H775.911C775.847 193.24 775.207 191.704 773.991 190.68C772.839 189.656 771.335 189.144 769.479 189.144C768.071 189.144 766.919 189.56 766.023 190.392C765.127 191.224 764.679 192.408 764.679 193.944C764.679 195.224 765.159 196.344 766.119 197.304C767.143 198.2 768.391 199 769.863 199.704C771.335 200.344 773.511 201.176 776.391 202.2C780.679 203.672 784.199 205.144 786.951 206.616C789.767 208.024 792.167 210.04 794.151 212.664C796.199 215.224 797.223 218.488 797.223 222.456C797.223 226.488 796.199 230.104 794.151 233.304C792.167 236.504 789.255 239.032 785.415 240.888C781.639 242.744 777.159 243.672 771.975 243.672ZM824.786 190.392V201.432H846.386V215.736H824.786V227.928H849.266V243H805.97V175.32H849.266V190.392H824.786Z" fill="#033348"/>
</svg>
