<svg width="165" height="44" viewBox="0 0 165 44" fill="none" xmlns="http://www.w3.org/2000/svg">
<path d="M0.71875 43V0.818181H12.1705V33.7727H29.2244V43H0.71875ZM73.0746 21.9091C73.0746 26.6051 72.1615 30.5665 70.3352 33.7933C68.509 37.0064 66.0443 39.4437 62.9411 41.1051C59.8378 42.7528 56.3776 43.5767 52.5604 43.5767C48.7157 43.5767 45.2417 42.746 42.1385 41.0845C39.049 39.4093 36.5911 36.9652 34.7649 33.7521C32.9524 30.5253 32.0462 26.5777 32.0462 21.9091C32.0462 17.2131 32.9524 13.2585 34.7649 10.0455C36.5911 6.81865 39.049 4.38139 42.1385 2.73366C45.2417 1.0722 48.7157 0.241476 52.5604 0.241476C56.3776 0.241476 59.8378 1.0722 62.9411 2.73366C66.0443 4.38139 68.509 6.81865 70.3352 10.0455C72.1615 13.2585 73.0746 17.2131 73.0746 21.9091ZM61.2933 21.9091C61.2933 19.3826 60.9569 17.2543 60.2841 15.5241C59.625 13.7803 58.6432 12.4621 57.3388 11.5696C56.0481 10.6634 54.4553 10.2102 52.5604 10.2102C50.6655 10.2102 49.0658 10.6634 47.7614 11.5696C46.4706 12.4621 45.4889 13.7803 44.8161 15.5241C44.157 17.2543 43.8274 19.3826 43.8274 21.9091C43.8274 24.4356 44.157 26.5708 44.8161 28.3146C45.4889 30.0447 46.4706 31.3629 47.7614 32.2692C49.0658 33.1617 50.6655 33.608 52.5604 33.608C54.4553 33.608 56.0481 33.1617 57.3388 32.2692C58.6432 31.3629 59.625 30.0447 60.2841 28.3146C60.9569 26.5708 61.2933 24.4356 61.2933 21.9091ZM105.767 14.7415C105.588 14.0137 105.307 13.3752 104.922 12.826C104.538 12.263 104.057 11.7893 103.48 11.4048C102.917 11.0066 102.258 10.7114 101.503 10.5192C100.762 10.3132 99.9445 10.2102 99.052 10.2102C97.1297 10.2102 95.4888 10.6702 94.1294 11.5902C92.7838 12.5102 91.754 13.8352 91.04 15.5653C90.3397 17.2955 89.9895 19.3826 89.9895 21.8267C89.9895 24.2983 90.3259 26.4129 90.9988 28.1705C91.6716 29.928 92.6739 31.2737 94.0059 32.2074C95.3378 33.1411 96.9924 33.608 98.9696 33.608C100.713 33.608 102.162 33.3539 103.316 32.8459C104.483 32.3378 105.355 31.617 105.931 30.6832C106.508 29.7495 106.796 28.651 106.796 27.3878L108.774 27.5938H99.1344V19.4375H117.836V25.2869C117.836 29.1316 117.019 32.4202 115.385 35.1527C113.765 37.8714 111.527 39.9586 108.671 41.4141C105.828 42.8558 102.567 43.5767 98.8873 43.5767C94.7817 43.5767 91.1773 42.7048 88.074 40.9609C84.9708 39.2171 82.5473 36.7318 80.8034 33.505C79.0733 30.2782 78.2083 26.4403 78.2083 21.9915C78.2083 18.5038 78.7369 15.4143 79.7942 12.723C80.8652 10.0317 82.3482 7.75923 84.2431 5.90554C86.138 4.03811 88.3281 2.63068 90.8134 1.68324C93.2987 0.722063 95.9625 0.241476 98.8049 0.241476C101.304 0.241476 103.624 0.598484 105.767 1.3125C107.922 2.01278 109.824 3.01515 111.472 4.3196C113.133 5.61032 114.472 7.14133 115.488 8.91264C116.504 10.6839 117.122 12.6269 117.342 14.7415H105.767ZM164.039 21.9091C164.039 26.6051 163.126 30.5665 161.3 33.7933C159.474 37.0064 157.009 39.4437 153.906 41.1051C150.803 42.7528 147.342 43.5767 143.525 43.5767C139.681 43.5767 136.207 42.746 133.103 41.0845C130.014 39.4093 127.556 36.9652 125.73 33.7521C123.917 30.5253 123.011 26.5777 123.011 21.9091C123.011 17.2131 123.917 13.2585 125.73 10.0455C127.556 6.81865 130.014 4.38139 133.103 2.73366C136.207 1.0722 139.681 0.241476 143.525 0.241476C147.342 0.241476 150.803 1.0722 153.906 2.73366C157.009 4.38139 159.474 6.81865 161.3 10.0455C163.126 13.2585 164.039 17.2131 164.039 21.9091ZM152.258 21.9091C152.258 19.3826 151.922 17.2543 151.249 15.5241C150.59 13.7803 149.608 12.4621 148.304 11.5696C147.013 10.6634 145.42 10.2102 143.525 10.2102C141.63 10.2102 140.031 10.6634 138.726 11.5696C137.435 12.4621 136.454 13.7803 135.781 15.5241C135.122 17.2543 134.792 19.3826 134.792 21.9091C134.792 24.4356 135.122 26.5708 135.781 28.3146C136.454 30.0447 137.435 31.3629 138.726 32.2692C140.031 33.1617 141.63 33.608 143.525 33.608C145.42 33.608 147.013 33.1617 148.304 32.2692C149.608 31.3629 150.59 30.0447 151.249 28.3146C151.922 26.5708 152.258 24.4356 152.258 21.9091Z" fill="white"/>
</svg>
